Coordinates
version=1
nRows=11
nColumns=40
inDegrees=yes

Units are S.I. units (second, meters, Newtons, ...)
Angles are in degrees.

endheader
time	pelvis_tilt	pelvis_list	pelvis_rotation	pelvis_tx	pelvis_ty	pelvis_tz	hip_flexion_r	hip_adduction_r	hip_rotation_r	knee_angle_r	knee_angle_r_beta	ankle_angle_r	subtalar_angle_r	mtp_angle_r	hip_flexion_l	hip_adduction_l	hip_rotation_l	knee_angle_l	knee_angle_l_beta	ankle_angle_l	subtalar_angle_l	mtp_angle_l	lumbar_extension	lumbar_bending	lumbar_rotation	arm_flex_r	arm_add_r	arm_rot_r	elbow_flex_r	pro_sup_r	wrist_flex_r	wrist_dev_r	arm_flex_l	arm_add_l	arm_rot_l	elbow_flex_l	pro_sup_l	wrist_flex_l	wrist_dev_l
     18.11750000	     -3.65422767	     -4.42187932	     -5.90784256	      0.86302173	      0.92392032	      0.50197183	     18.85725173	      3.29916424	    -10.17663452	     22.39945799	     22.39945799	      9.15145134	     -3.33588243	     -4.93906379	      2.95647785	    -11.75835277	    -12.45343232	     29.57095927	     29.57095927	     16.11581166	    -16.98771118	      2.82954000	     -9.35649308	      7.84799544	      3.44839010	    -12.85968109	    -15.39036272	    -16.76033647	     39.30181522	     47.48367185	      0.00000000	      0.00000000	     25.32223837	    -34.87678852	    -32.66128852	     73.57067495	     48.36121988	      0.00000000	      0.00000000
     18.13685714	     -3.61430568	     -4.46294586	     -5.64199296	      0.86286384	      0.92472804	      0.50649854	     18.10312617	      3.60875302	    -10.43976039	     21.87436498	     21.87436498	      9.45629694	     -3.08285607	     -4.81719784	      4.42989863	    -12.50140963	    -11.62493105	     32.87092547	     32.87092547	     15.42477708	    -17.63409312	      3.57146209	     -9.25813036	      7.85313645	      3.35518648	    -12.28115435	    -15.67771690	    -16.22340930	     41.88384320	     47.28130140	      0.00000000	      0.00000000	     24.15029688	    -34.26866940	    -32.05109561	     74.03475976	     48.33803504	      0.00000000	      0.00000000
     18.15621429	     -3.41988356	     -4.55759722	     -5.33682189	      0.86260983	      0.92574923	      0.51077841	     17.13990367	      3.95054553	    -10.76470615	     21.26435351	     21.26435351	      9.67935793	     -2.80353957	     -4.79464877	      5.80350983	    -13.27563152	    -10.81054189	     36.15069432	     36.15069432	     14.36707470	    -18.27421412	      3.66987471	     -9.32759620	      7.88134268	      3.52876090	    -10.93569186	    -15.95119182	    -16.07766038	     42.51374958	     47.24733308	      0.00000000	      0.00000000	     23.77493691	    -33.13667846	    -31.57161865	     73.99039074	     48.30228512	      0.00000000	      0.00000000
     18.17557143	     -3.32659752	     -4.67553540	     -4.95729414	      0.86221951	      0.92649939	      0.51472990	     16.27805326	      4.30221981	    -11.16278386	     20.61368808	     20.61368808	      9.86193908	     -2.52598102	     -4.80033372	      7.47853861	    -14.07527323	     -9.91556142	     39.60466825	     39.60466825	     13.56973249	    -18.65018895	      4.26080944	     -9.25209505	      7.95869271	      3.64543296	     -9.65437721	    -16.29856607	    -15.87857546	     43.26697322	     47.20342740	      0.00000000	      0.00000000	     23.07052965	    -31.96189979	    -30.91998686	     73.97543559	     48.25412787	      0.00000000	      0.00000000
     18.19492857	     -3.13592351	     -4.78690629	     -4.54340320	      0.86176906	      0.92723361	      0.51838064	     15.38089783	      4.61710237	    -11.56007446	     20.08681716	     20.08681716	     10.09342950	     -2.32510710	     -4.84697379	      9.08728641	    -14.79818633	     -9.00001787	     42.93137880	     42.93137880	     12.93843967	    -18.95823548	      5.21078685	     -9.29092195	      8.03650118	      3.76918004	     -8.14141215	    -16.68853292	    -15.66718512	     44.08459002	     47.16044301	      0.00000000	      0.00000000	     22.29375033	    -30.71468558	    -30.14301952	     73.97936494	     48.19684576	      0.00000000	      0.00000000
     18.21428571	     -3.00659743	     -4.74336473	     -4.09761232	      0.86108636	      0.92780323	      0.52150415	     14.62323136	      4.72501574	    -11.97063049	     19.62810831	     19.62810831	     10.19363511	     -2.10060913	     -5.31191620	     11.17224968	    -15.03714491	     -7.47292629	     46.77904279	     46.77904279	     15.26145367	    -19.01493301	     14.00600287	     -9.28471783	      7.94479290	      3.58561533	     -6.81240292	    -17.49367696	    -13.62239876	     45.65526784	     46.90927514	      0.00000000	      0.00000000	     20.48858215	    -29.96361386	    -28.67924970	     74.76352374	     48.13190164	      0.00000000	      0.00000000
     18.23364286	     -2.72259599	     -4.87930695	     -3.62815347	      0.86049257	      0.92832666	      0.52465190	     13.76408917	      5.03613066	    -12.33364947	     19.33106588	     19.33106588	     10.49918254	     -2.07235566	     -5.33036396	     12.63692093	    -15.70708424	     -6.74245178	     49.54542784	     49.54542784	     14.66946095	    -19.23301799	     14.25719794	     -9.43580294	      8.03158102	      3.75873541	     -5.03802459	    -17.84719041	    -13.52508463	     46.24353117	     46.88560596	      0.00000000	      0.00000000	     19.65948768	    -28.39837777	    -27.90710053	     74.49116290	     48.06902415	      0.00000000	      0.00000000
     18.25300000	     -2.51963994	     -4.96851137	     -3.11526398	      0.85976251	      0.92859172	      0.52746256	     13.02541901	      5.29878407	    -12.62443002	     19.05130081	     19.05130081	     10.80762197	     -2.19258095	     -5.24810166	     14.37475284	    -16.16716092	     -5.76477194	     52.35359459	     52.35359459	     15.68610227	    -19.33576651	     18.38339808	     -9.45610456	      8.08269542	      3.47953576	     -2.87598003	    -18.24905975	    -12.53699720	     46.54164926	     46.79110225	      0.00000000	      0.00000000	     17.80177274	    -27.72431785	    -25.97784053	     74.39269399	     47.94454662	      0.00000000	      0.00000000
     18.27235714	     -2.26725067	     -5.07611098	     -2.61382421	      0.85894097	      0.92861604	      0.53008174	     12.41946501	      5.54149311	    -12.90056691	     19.11569096	     19.11569096	     11.25674411	     -2.38194396	     -5.14987578	     15.91000505	    -16.67635408	     -5.04786408	     54.61811152	     54.61811152	     16.19785333	    -19.44220475	     20.42587236	     -9.55037175	      8.13464900	      3.54245618	     -0.74359300	    -18.63169201	    -11.70889838	     46.62564836	     46.71686772	      0.00000000	      0.00000000	     16.51540623	    -26.25024272	    -24.82571970	     74.07812971	     47.87046118	      0.00000000	      0.00000000
     18.29171429	     -1.85438747	     -5.13277985	     -2.14051638	      0.85811239	      0.92870768	      0.53254394	     11.72191346	      5.70764550	    -13.15911857	     19.31553308	     19.31553308	     11.66533731	     -2.61406696	     -5.22873044	     17.05242984	    -17.18006600	     -4.69677628	     56.24149675	     56.24149675	     16.18213086	    -19.51808573	     20.48070693	     -9.89783921	      8.09871856	      3.86197500	      1.20751630	    -18.82914682	    -11.62425823	     47.21359117	     46.69826716	      0.00000000	      0.00000000	     15.43681777	    -24.32468264	    -23.93432463	     73.61368690	     47.79318983	      0.00000000	      0.00000000
     18.31107143	     -1.66706785	     -5.22737943	     -1.60049122	      0.85704258	      0.92808763	      0.53474694	     11.48028422	      5.92640377	    -13.21865813	     19.86604541	     19.86604541	     12.26589232	     -3.41147573	     -4.80852702	     18.58825739	    -17.60299437	     -4.12116366	     57.74419955	     57.74419955	     17.03179381	    -19.56479462	     22.53768556	     -9.89204011	      8.16275099	      3.47887706	      3.90013361	    -18.85969328	    -10.71711552	     47.09412633	     46.64226978	      0.00000000	      0.00000000	     13.59009006	    -23.48662936	    -21.94674320	     72.47483422	     47.64329238	      0.00000000	      0.00000000
